<mxfile host="app.diagrams.net" modified="2023-05-30T05:26:18.352Z" agent="Mozilla/5.0 (Windows NT 10.0; Win64; x64) AppleWebKit/537.36 (KHTML, like Gecko) Chrome/113.0.0.0 Safari/537.36 Edg/113.0.1774.57" version="21.2.3" etag="Gqqx92q93zhzoDnQY0in" type="github">
  <diagram name="Page-1" id="GkBgBfVmLD1mnw6ilW2z">
    <mxGraphModel>
      <root>
        <mxCell id="0" />
        <mxCell id="1" parent="0" />
      </root>
    </mxGraphModel>
  </diagram>
</mxfile>
